<svg width="210" height="131" viewBox="0 0 210 131" fill="none" xmlns="http://www.w3.org/2000/svg">
<path d="M16.9731 117.924C16.9731 118.942 16.7932 119.859 16.4335 120.674C16.0738 121.497 15.5616 122.193 14.8969 122.763C14.2322 123.334 13.4268 123.774 12.4806 124.084C11.5344 124.395 10.4787 124.55 9.3135 124.55C7.44454 124.55 5.77891 124.275 4.31658 123.727C2.85426 123.178 1.65 122.551 0.703791 121.843L3.50722 119.256C4.25012 119.884 5.08293 120.364 6.00568 120.696C6.56871 120.898 7.09656 121.031 7.58921 121.096C8.08187 121.161 8.4885 121.194 8.80912 121.194C9.38779 121.194 9.91954 121.125 10.4044 120.988C10.8892 120.851 11.3115 120.671 11.6712 120.447C12.4375 119.927 12.8207 119.242 12.8207 118.39C12.8207 117.87 12.6174 117.401 12.2108 116.983C11.898 116.651 11.4953 116.384 11.0026 116.181C10.596 115.972 10.1659 115.806 9.71231 115.683C9.26658 115.554 8.86386 115.438 8.50414 115.337C8.38684 115.294 8.28518 115.269 8.19916 115.261C8.10532 115.247 8.02713 115.222 7.96457 115.186C7.91765 115.186 7.84727 115.164 7.75343 115.121C7.28424 114.998 6.6039 114.778 5.71244 114.46C4.82879 114.15 3.94905 113.728 3.07322 113.194C1.02441 111.923 0 110.364 0 108.517C0 107.29 0.230687 106.258 0.692061 105.421C1.15344 104.576 1.75557 103.891 2.49846 103.364C3.24135 102.837 4.06635 102.458 4.97346 102.227C5.88838 101.996 6.78376 101.881 7.65959 101.881C9.27831 101.881 10.639 102.058 11.7416 102.411C12.8442 102.765 13.72 103.118 14.3691 103.472C14.7053 103.66 14.9947 103.84 15.2371 104.013C15.4717 104.194 15.6789 104.356 15.8588 104.501L12.9849 107.174C12.3828 106.619 11.765 106.193 11.1316 105.897C10.1854 105.486 9.1962 105.28 8.16397 105.28C7.71042 105.28 7.26078 105.331 6.81504 105.432C6.36149 105.54 5.96658 105.677 5.63033 105.843C4.64502 106.399 4.15237 107.135 4.15237 108.051C4.15237 108.614 4.35177 109.091 4.75059 109.48C5.04774 109.791 5.45438 110.072 5.97049 110.325C6.40059 110.534 6.85023 110.7 7.31943 110.823C7.78862 110.945 8.22653 111.061 8.63317 111.169L9.04371 111.256C9.15319 111.299 9.36433 111.36 9.67712 111.44C9.99774 111.526 10.3692 111.653 10.7915 111.819C11.2216 111.985 11.6907 112.183 12.199 112.414C12.6995 112.638 13.2 112.905 13.7005 113.215C15.8822 114.543 16.9731 116.113 16.9731 117.924ZM30.7322 108.582H35.1895L27.3657 124.149L26.3101 126.271C25.6845 127.534 24.7422 128.541 23.4832 129.291C22.2242 130.035 20.8283 130.406 19.2956 130.406H17.5127L18.5214 126.672H19.495C20.1519 126.672 20.7618 126.506 21.3249 126.174C21.8879 125.842 22.3024 125.394 22.5682 124.831L22.9084 124.149L15.0846 108.582H19.5302L25.1371 119.732L30.7322 108.582ZM40.5853 124.149H36.5385V102.357H40.5853V124.149ZM47.0015 124.149H42.943V102.357H47.0015V124.149ZM62.6139 108.549H66.6725V124.149H62.6139V116.366C62.6139 115.117 62.1447 114.06 61.2063 113.194C60.2601 112.32 59.1106 111.884 57.7578 111.884C57.1087 111.884 56.487 111.996 55.8927 112.219C55.2906 112.45 54.7667 112.775 54.3209 113.194C53.3747 114.06 52.9016 115.117 52.9016 116.366C52.9016 117.592 53.3747 118.639 54.3209 119.505C54.7667 119.945 55.2906 120.274 55.8927 120.49C56.487 120.707 57.1087 120.815 57.7578 120.815C58.4303 120.815 59.0363 120.71 59.5759 120.501L61.0304 123.835C59.9982 124.312 58.7939 124.55 57.4176 124.55C56.1821 124.55 55.0404 124.337 53.9925 123.911C52.9524 123.485 52.0492 122.901 51.2829 122.157C50.5165 121.407 49.9183 120.533 49.4882 119.537C49.066 118.541 48.8548 117.484 48.8548 116.366C48.8548 115.225 49.066 114.157 49.4882 113.161C49.9183 112.165 50.5165 111.292 51.2829 110.541C52.0492 109.798 52.9524 109.213 53.9925 108.788C55.0404 108.362 56.1821 108.149 57.4176 108.149C58.5202 108.149 59.5016 108.304 60.3618 108.614C61.2142 108.925 61.9649 109.318 62.6139 109.794V108.549ZM78.2733 108.17C79.5088 108.17 80.6505 108.383 81.6984 108.809C82.7463 109.235 83.6495 109.823 84.408 110.574C85.1743 111.317 85.7726 112.19 86.2027 113.194C86.6327 114.19 86.8478 115.258 86.8478 116.398C86.8478 117.517 86.6327 118.574 86.2027 119.57C85.7726 120.566 85.1743 121.439 84.408 122.19C83.6495 122.933 82.7463 123.518 81.6984 123.943C80.6505 124.369 79.5088 124.582 78.2733 124.582C76.9439 124.582 75.7396 124.344 74.6605 123.868L76.115 120.533C76.6546 120.743 77.2606 120.847 77.9331 120.847C79.3094 120.847 80.4589 120.411 81.3817 119.537C82.3201 118.664 82.7893 117.618 82.7893 116.398C82.7893 115.149 82.3201 114.089 81.3817 113.215C80.4355 112.349 79.286 111.916 77.9331 111.916C76.6272 111.916 75.4816 112.349 74.4963 113.215C73.5501 114.089 73.077 115.149 73.077 116.398V122.937V124.182H69.0302V102.357H73.077V109.827C73.726 109.35 74.4806 108.957 75.3408 108.647C76.1932 108.329 77.1707 108.17 78.2733 108.17ZM100.302 108.582H104.349V124.149H100.302V122.969C99.6998 123.446 99.0156 123.835 98.2492 124.138C97.4829 124.434 96.6266 124.582 95.6804 124.582C94.5778 124.582 93.5768 124.391 92.6775 124.008C91.7782 123.626 91.008 123.103 90.3668 122.439C89.7255 121.775 89.2329 120.995 88.8888 120.1C88.5369 119.205 88.361 118.249 88.361 117.232V108.582H92.4077V117.232C92.4077 118.213 92.8027 119.065 93.5925 119.786C94.3588 120.494 95.2816 120.847 96.3607 120.847C97.4633 120.847 98.3939 120.494 99.1524 119.786C99.9188 119.086 100.302 118.235 100.302 117.232V108.582ZM113.123 114.493C113.396 114.558 113.846 114.706 114.472 114.937C115.105 115.16 115.754 115.474 116.419 115.878C117.076 116.283 117.654 116.788 118.155 117.394C118.647 117.993 118.894 118.707 118.894 119.537C118.894 120.266 118.765 120.93 118.507 121.529C118.249 122.136 117.873 122.666 117.381 123.121C116.88 123.575 116.27 123.929 115.551 124.182C114.831 124.427 114.022 124.55 113.123 124.55C111.754 124.55 110.48 124.322 109.299 123.868C108.118 123.413 107.168 122.854 106.448 122.19L109.24 119.602C109.827 120.245 110.452 120.66 111.117 120.847C111.782 121.035 112.337 121.129 112.782 121.129C113.486 121.129 114.006 121.003 114.343 120.75C114.679 120.505 114.847 120.205 114.847 119.851C114.847 119.606 114.734 119.389 114.507 119.202C114.28 119.014 114.018 118.859 113.721 118.736C113.416 118.606 113.103 118.505 112.782 118.433C112.47 118.361 112.212 118.292 112.008 118.228C111.742 118.148 111.289 118.004 110.648 117.794C110.006 117.585 109.353 117.286 108.689 116.896C108.024 116.499 107.445 116.001 106.953 115.402C106.46 114.796 106.214 114.067 106.214 113.215C106.214 112.349 106.374 111.599 106.695 110.963C107.023 110.328 107.457 109.805 107.997 109.394C108.536 108.975 109.154 108.668 109.85 108.474C110.546 108.272 111.265 108.17 112.008 108.17C113.158 108.17 114.131 108.297 114.929 108.549C115.727 108.795 116.384 109.065 116.9 109.361C117.486 109.715 117.983 110.108 118.389 110.541L115.551 113.161C115.105 112.62 114.612 112.223 114.073 111.97C113.533 111.725 112.958 111.602 112.348 111.602C111.879 111.602 111.414 111.707 110.953 111.916C110.491 112.118 110.261 112.45 110.261 112.912C110.261 113.157 110.362 113.37 110.566 113.551C110.761 113.724 111.007 113.868 111.305 113.984C111.594 114.099 111.903 114.197 112.231 114.276C112.56 114.363 112.857 114.435 113.123 114.493ZM137.556 117.924C137.556 118.942 137.376 119.859 137.016 120.674C136.657 121.497 136.144 122.193 135.48 122.763C134.815 123.334 134.01 123.774 133.063 124.084C132.117 124.395 131.062 124.55 129.896 124.55C128.027 124.55 126.362 124.275 124.899 123.727C123.437 123.178 122.233 122.551 121.287 121.843L124.09 119.256C124.833 119.884 125.666 120.364 126.589 120.696C127.152 120.898 127.679 121.031 128.172 121.096C128.665 121.161 129.071 121.194 129.392 121.194C129.971 121.194 130.502 121.125 130.987 120.988C131.472 120.851 131.894 120.671 132.254 120.447C133.02 119.927 133.404 119.242 133.404 118.39C133.404 117.87 133.2 117.401 132.794 116.983C132.481 116.651 132.078 116.384 131.585 116.181C131.179 115.972 130.749 115.806 130.295 115.683C129.849 115.554 129.447 115.438 129.087 115.337C128.97 115.294 128.868 115.269 128.782 115.261C128.688 115.247 128.61 115.222 128.547 115.186C128.5 115.186 128.43 115.164 128.336 115.121C127.867 114.998 127.187 114.778 126.295 114.46C125.412 114.15 124.532 113.728 123.656 113.194C121.607 111.923 120.583 110.364 120.583 108.517C120.583 107.29 120.814 106.258 121.275 105.421C121.736 104.576 122.338 103.891 123.081 103.364C123.824 102.837 124.649 102.458 125.556 102.227C126.471 101.996 127.367 101.881 128.242 101.881C129.861 101.881 131.222 102.058 132.324 102.411C133.427 102.765 134.303 103.118 134.952 103.472C135.288 103.66 135.577 103.84 135.82 104.013C136.055 104.194 136.262 104.356 136.442 104.501L133.568 107.174C132.966 106.619 132.348 106.193 131.714 105.897C130.768 105.486 129.779 105.28 128.747 105.28C128.293 105.28 127.844 105.331 127.398 105.432C126.944 105.54 126.549 105.677 126.213 105.843C125.228 106.399 124.735 107.135 124.735 108.051C124.735 108.614 124.935 109.091 125.333 109.48C125.631 109.791 126.037 110.072 126.553 110.325C126.983 110.534 127.433 110.7 127.902 110.823C128.371 110.945 128.809 111.061 129.216 111.169L129.627 111.256C129.736 111.299 129.947 111.36 130.26 111.44C130.581 111.526 130.952 111.653 131.374 111.819C131.804 111.985 132.274 112.183 132.782 112.414C133.282 112.638 133.783 112.905 134.283 113.215C136.465 114.543 137.556 116.113 137.556 117.924ZM151.421 119.505L154.283 122.157C153.477 122.901 152.535 123.485 151.456 123.911C150.377 124.337 149.215 124.55 147.972 124.55C146.736 124.55 145.579 124.337 144.5 123.911C143.421 123.485 142.479 122.901 141.673 122.157C140.86 121.407 140.223 120.533 139.761 119.537C139.3 118.541 139.069 117.484 139.069 116.366C139.069 115.225 139.3 114.157 139.761 113.161C140.223 112.165 140.86 111.292 141.673 110.541C142.479 109.798 143.421 109.213 144.5 108.788C145.579 108.362 146.736 108.149 147.972 108.149C149.215 108.149 150.377 108.362 151.456 108.788C152.535 109.213 153.477 109.798 154.283 110.541L151.421 113.194C150.474 112.32 149.325 111.884 147.972 111.884C146.674 111.884 145.528 112.32 144.535 113.194C143.589 114.06 143.116 115.117 143.116 116.366C143.116 117.592 143.589 118.639 144.535 119.505C145.004 119.945 145.532 120.274 146.119 120.49C146.705 120.707 147.323 120.815 147.972 120.815C149.348 120.815 150.498 120.378 151.421 119.505ZM159.514 109.762C160.148 109.286 160.863 108.892 161.661 108.582C162.458 108.272 163.362 108.116 164.37 108.116V111.851C163.025 111.851 161.88 112.288 160.934 113.161C159.987 114.07 159.514 115.128 159.514 116.333V124.149H155.467V116.333V108.549H159.514V109.762ZM170.282 124.149H166.235V108.582H170.282V124.149ZM166.235 106.092V102.357H170.282V106.092H166.235ZM181.883 108.17C183.119 108.17 184.26 108.383 185.308 108.809C186.356 109.235 187.263 109.823 188.029 110.574C188.788 111.317 189.382 112.19 189.812 113.194C190.242 114.19 190.458 115.258 190.458 116.398C190.458 117.517 190.242 118.574 189.812 119.57C189.382 120.566 188.788 121.439 188.029 122.19C187.263 122.933 186.356 123.518 185.308 123.943C184.26 124.369 183.119 124.582 181.883 124.582C180.554 124.582 179.349 124.344 178.27 123.868L179.725 120.533C180.264 120.743 180.87 120.847 181.543 120.847C182.919 120.847 184.069 120.411 184.991 119.537C185.938 118.664 186.411 117.618 186.411 116.398C186.411 115.149 185.938 114.089 184.991 113.215C184.045 112.349 182.896 111.916 181.543 111.916C180.245 111.916 179.099 112.349 178.106 113.215C177.16 114.089 176.687 115.149 176.687 116.398V122.937V124.182H172.64V102.357H176.687V109.827C177.344 109.35 178.098 108.957 178.951 108.647C179.803 108.329 180.78 108.17 181.883 108.17ZM209.378 118.228H205.132H196.287C196.514 118.711 196.842 119.137 197.273 119.505C197.742 119.945 198.27 120.274 198.856 120.49C199.443 120.707 200.06 120.815 200.709 120.815C201.632 120.815 202.453 120.62 203.173 120.23L207.395 121.778C206.582 122.652 205.601 123.334 204.451 123.824C203.31 124.308 202.062 124.55 200.709 124.55C199.474 124.55 198.317 124.337 197.237 123.911C196.158 123.485 195.212 122.901 194.399 122.157C193.593 121.407 192.96 120.533 192.499 119.537C192.037 118.541 191.806 117.484 191.806 116.366C191.806 115.225 192.037 114.157 192.499 113.161C192.96 112.165 193.593 111.292 194.399 110.541C195.212 109.798 196.158 109.213 197.237 108.788C198.317 108.362 199.474 108.149 200.709 108.149C201.945 108.149 203.102 108.362 204.181 108.788C205.261 109.213 206.207 109.798 207.02 110.541C207.833 111.292 208.471 112.165 208.932 113.161C209.386 114.157 209.612 115.225 209.612 116.366C209.612 117.029 209.534 117.65 209.378 118.228ZM200.709 111.884C199.404 111.884 198.258 112.32 197.273 113.194C196.842 113.583 196.514 114.016 196.287 114.493H205.132C204.905 114.016 204.58 113.583 204.158 113.194C203.212 112.32 202.062 111.884 200.709 111.884Z" fill="#2951DC"/>
<path d="M104.554 74.687L115.492 90H93.6195L82.6851 74.687H104.554Z" fill="#557AFF"/>
<path d="M83.8725 45.6692L116.483 0H94.6109L62 45.6692H83.8725Z" fill="#2951DC"/>
<path d="M99.6913 67.821H77.8188L62 45.6693H83.8725L99.6913 67.821Z" fill="#557AFF"/>
<path d="M126.131 44.4742L93.6198 90H115.492L148 44.4742H126.131ZM99.6914 67.8209L132.181 22.319L110.312 22.3224L77.8188 67.8209H99.6914Z" fill="#2951DC"/>
<path d="M148 44.4742H126.131L110.309 22.319H132.181L148 44.4742ZM116.484 0L127.418 15.313H105.546L94.6113 0H116.484Z" fill="#557AFF"/>
</svg>
