<svg width="308" height="90" viewBox="0 0 308 90" fill="none" xmlns="http://www.w3.org/2000/svg">
<path d="M115.06 46.9244C115.06 47.942 114.881 48.8586 114.521 49.6741C114.161 50.4969 113.649 51.1933 112.984 51.7635C112.32 52.3336 111.514 52.7739 110.568 53.0842C109.622 53.3946 108.566 53.5497 107.401 53.5497C105.532 53.5497 103.866 53.2755 102.404 52.727C100.942 52.1785 99.7374 51.5506 98.7912 50.8433L101.595 48.256C102.338 48.8839 103.17 49.3638 104.093 49.6958C104.656 49.8979 105.184 50.0314 105.677 50.0963C106.169 50.1613 106.576 50.1938 106.897 50.1938C107.475 50.1938 108.007 50.1252 108.492 49.9881C108.977 49.851 109.399 49.6705 109.759 49.4468C110.525 48.9272 110.908 48.2415 110.908 47.3899C110.908 46.8703 110.705 46.4012 110.298 45.9826C109.985 45.6506 109.583 45.3835 109.09 45.1815C108.683 44.9722 108.253 44.8062 107.8 44.6835C107.354 44.5536 106.951 44.4381 106.592 44.3371C106.474 44.2938 106.373 44.2685 106.287 44.2613C106.193 44.2469 106.115 44.2216 106.052 44.1855C106.005 44.1855 105.935 44.1639 105.841 44.1206C105.372 43.9979 104.691 43.7777 103.8 43.4602C102.916 43.1498 102.036 42.7276 101.161 42.1936C99.1118 40.9234 98.0874 39.3645 98.0874 37.5169C98.0874 36.29 98.3181 35.2579 98.7795 34.4207C99.2408 33.5763 99.843 32.8907 100.586 32.3639C101.329 31.837 102.154 31.4581 103.061 31.2272C103.976 30.9962 104.871 30.8807 105.747 30.8807C107.366 30.8807 108.726 31.0576 109.829 31.4112C110.932 31.7648 111.807 32.1185 112.456 32.4721C112.793 32.6598 113.082 32.8402 113.324 33.0134C113.559 33.1938 113.766 33.3562 113.946 33.5006L111.072 36.1745C110.47 35.6188 109.852 35.193 109.219 34.8971C108.273 34.4857 107.284 34.28 106.251 34.28C105.798 34.28 105.348 34.3305 104.902 34.4316C104.449 34.5398 104.054 34.6769 103.718 34.8429C102.732 35.3987 102.24 36.1348 102.24 37.0514C102.24 37.6143 102.439 38.0906 102.838 38.4804C103.135 38.7907 103.542 39.0722 104.058 39.3248C104.488 39.5341 104.938 39.7001 105.407 39.8228C105.876 39.9454 106.314 40.0609 106.721 40.1692L107.131 40.2558C107.241 40.2991 107.452 40.3604 107.765 40.4398C108.085 40.5264 108.457 40.6527 108.879 40.8187C109.309 40.9847 109.778 41.1832 110.286 41.4141C110.787 41.6379 111.287 41.9049 111.788 42.2152C113.97 43.5432 115.06 45.1129 115.06 46.9244ZM128.82 37.5818H133.277L125.453 53.1492L124.397 55.271C123.772 56.534 122.83 57.5408 121.571 58.2914C120.312 59.0347 118.916 59.4064 117.383 59.4064H115.6L116.609 55.6716H117.582C118.239 55.6716 118.849 55.5056 119.412 55.1736C119.975 54.8416 120.39 54.3941 120.656 53.8312L120.996 53.1492L113.172 37.5818H117.618L123.224 48.7323L128.82 37.5818ZM138.673 53.1492H134.626V31.3571H138.673V53.1492ZM145.089 53.1492H141.03V31.3571H145.089V53.1492ZM160.701 37.5494H164.76V53.1492H160.701V45.3655C160.701 44.1169 160.232 43.0596 159.294 42.1936C158.348 41.3203 157.198 40.8837 155.845 40.8837C155.196 40.8837 154.574 40.9955 153.98 41.2193C153.378 41.4502 152.854 41.775 152.408 42.1936C151.462 43.0596 150.989 44.1169 150.989 45.3655C150.989 46.5924 151.462 47.6389 152.408 48.505C152.854 48.9452 153.378 49.2736 153.98 49.4901C154.574 49.7066 155.196 49.8149 155.845 49.8149C156.518 49.8149 157.124 49.7102 157.663 49.5009L159.118 52.8352C158.086 53.3116 156.881 53.5497 155.505 53.5497C154.269 53.5497 153.128 53.3368 152.08 52.911C151.04 52.4852 150.137 51.9006 149.37 51.1572C148.604 50.4067 148.006 49.5334 147.576 48.5374C147.153 47.5415 146.942 46.4842 146.942 45.3655C146.942 44.2252 147.153 43.1571 147.576 42.1611C148.006 41.1651 148.604 40.2919 149.37 39.5413C150.137 38.7979 151.04 38.2133 152.08 37.7875C153.128 37.3617 154.269 37.1488 155.505 37.1488C156.608 37.1488 157.589 37.304 158.449 37.6143C159.302 37.9247 160.052 38.318 160.701 38.7943V37.5494ZM176.361 37.1705C177.596 37.1705 178.738 37.3834 179.786 37.8092C180.834 38.235 181.737 38.8232 182.495 39.5738C183.262 40.3171 183.86 41.1904 184.29 42.1936C184.72 43.1895 184.935 44.2577 184.935 45.398C184.935 46.5166 184.72 47.5739 184.29 48.5699C183.86 49.5659 183.262 50.4391 182.495 51.1897C181.737 51.9331 180.834 52.5177 179.786 52.9435C178.738 53.3693 177.596 53.5822 176.361 53.5822C175.031 53.5822 173.827 53.344 172.748 52.8677L174.202 49.5334C174.742 49.7427 175.348 49.8473 176.021 49.8473C177.397 49.8473 178.546 49.4107 179.469 48.5374C180.407 47.6642 180.877 46.6177 180.877 45.398C180.877 44.1494 180.407 43.0885 179.469 42.2152C178.523 41.3492 177.373 40.9161 176.021 40.9161C174.715 40.9161 173.569 41.3492 172.584 42.2152C171.637 43.0885 171.164 44.1494 171.164 45.398V51.9367V53.1817H167.118V31.3571H171.164V38.8268C171.813 38.3505 172.568 37.9571 173.428 37.6468C174.281 37.3292 175.258 37.1705 176.361 37.1705ZM198.389 37.5818H202.436V53.1492H198.389V51.9692C197.787 52.4455 197.103 52.8352 196.337 53.1384C195.57 53.4343 194.714 53.5822 193.768 53.5822C192.665 53.5822 191.664 53.391 190.765 53.0084C189.866 52.6259 189.095 52.1027 188.454 51.4387C187.813 50.7747 187.32 49.9953 186.976 49.1004C186.624 48.2054 186.448 47.2492 186.448 46.2316V37.5818H190.495V46.2316C190.495 47.2131 190.89 48.0647 191.68 48.7864C192.446 49.4937 193.369 49.8473 194.448 49.8473C195.551 49.8473 196.481 49.4937 197.24 48.7864C198.006 48.0864 198.389 47.2347 198.389 46.2316V37.5818ZM211.21 43.4927C211.484 43.5576 211.933 43.7056 212.559 43.9365C213.192 44.1602 213.841 44.4742 214.506 44.8784C215.163 45.2825 215.742 45.7877 216.242 46.3939C216.735 46.993 216.981 47.7075 216.981 48.5374C216.981 49.2664 216.852 49.9303 216.594 50.5294C216.336 51.1356 215.961 51.6661 215.468 52.1207C214.968 52.5754 214.358 52.9291 213.638 53.1817C212.919 53.427 212.109 53.5497 211.21 53.5497C209.842 53.5497 208.567 53.3224 207.386 52.8677C206.205 52.413 205.255 51.8537 204.536 51.1897L207.327 48.6024C207.914 49.2447 208.54 49.6597 209.204 49.8473C209.869 50.035 210.424 50.1288 210.87 50.1288C211.574 50.1288 212.094 50.0025 212.43 49.7499C212.766 49.5045 212.934 49.205 212.934 48.8514C212.934 48.606 212.821 48.3895 212.594 48.2018C212.367 48.0142 212.105 47.859 211.808 47.7363C211.503 47.6064 211.191 47.5054 210.87 47.4332C210.557 47.361 210.299 47.2925 210.096 47.2275C209.83 47.1481 209.376 47.0038 208.735 46.7945C208.094 46.5852 207.441 46.2857 206.776 45.896C206.111 45.499 205.533 45.001 205.04 44.402C204.548 43.7958 204.301 43.0669 204.301 42.2152C204.301 41.3492 204.461 40.5986 204.782 39.9635C205.111 39.3284 205.545 38.8051 206.084 38.3938C206.624 37.9752 207.241 37.6684 207.937 37.4736C208.633 37.2715 209.353 37.1705 210.096 37.1705C211.245 37.1705 212.219 37.2968 213.016 37.5494C213.814 37.7947 214.471 38.0654 214.987 38.3613C215.574 38.7149 216.07 39.1083 216.477 39.5413L213.638 42.1611C213.192 41.6198 212.7 41.2229 212.16 40.9703C211.621 40.7249 211.046 40.6022 210.436 40.6022C209.967 40.6022 209.501 40.7069 209.04 40.9161C208.579 41.1182 208.348 41.4502 208.348 41.9121C208.348 42.1575 208.45 42.3704 208.653 42.5508C208.848 42.724 209.095 42.8684 209.392 42.9839C209.681 43.0993 209.99 43.1968 210.319 43.2761C210.647 43.3628 210.944 43.4349 211.21 43.4927ZM235.643 46.9244C235.643 47.942 235.463 48.8586 235.104 49.6741C234.744 50.4969 234.232 51.1933 233.567 51.7635C232.902 52.3336 232.097 52.7739 231.151 53.0842C230.205 53.3946 229.149 53.5497 227.984 53.5497C226.115 53.5497 224.449 53.2755 222.987 52.727C221.525 52.1785 220.32 51.5506 219.374 50.8433L222.177 48.256C222.92 48.8839 223.753 49.3638 224.676 49.6958C225.239 49.8979 225.767 50.0314 226.259 50.0963C226.752 50.1613 227.159 50.1938 227.479 50.1938C228.058 50.1938 228.59 50.1252 229.075 49.9881C229.559 49.851 229.982 49.6705 230.341 49.4468C231.108 48.9272 231.491 48.2415 231.491 47.3899C231.491 46.8703 231.288 46.4012 230.881 45.9826C230.568 45.6506 230.165 45.3835 229.673 45.1815C229.266 44.9722 228.836 44.8062 228.383 44.6835C227.937 44.5536 227.534 44.4381 227.174 44.3371C227.057 44.2938 226.955 44.2685 226.869 44.2613C226.776 44.2469 226.697 44.2216 226.635 44.1855C226.588 44.1855 226.518 44.1639 226.424 44.1206C225.954 43.9979 225.274 43.7777 224.383 43.4602C223.499 43.1498 222.619 42.7276 221.743 42.1936C219.695 40.9234 218.67 39.3645 218.67 37.5169C218.67 36.29 218.901 35.2579 219.362 34.4207C219.824 33.5763 220.426 32.8907 221.169 32.3639C221.912 31.837 222.737 31.4581 223.644 31.2272C224.559 30.9962 225.454 30.8807 226.33 30.8807C227.949 30.8807 229.309 31.0576 230.412 31.4112C231.514 31.7648 232.39 32.1185 233.039 32.4721C233.376 32.6598 233.665 32.8402 233.907 33.0134C234.142 33.1938 234.349 33.3562 234.529 33.5006L231.655 36.1745C231.053 35.6188 230.435 35.193 229.802 34.8971C228.856 34.4857 227.866 34.28 226.834 34.28C226.381 34.28 225.931 34.3305 225.485 34.4316C225.032 34.5398 224.637 34.6769 224.301 34.8429C223.315 35.3987 222.823 36.1348 222.823 37.0514C222.823 37.6143 223.022 38.0906 223.421 38.4804C223.718 38.7907 224.125 39.0722 224.641 39.3248C225.071 39.5341 225.52 39.7001 225.99 39.8228C226.459 39.9454 226.897 40.0609 227.303 40.1692L227.714 40.2558C227.823 40.2991 228.035 40.3604 228.347 40.4398C228.668 40.5264 229.039 40.6527 229.462 40.8187C229.892 40.9847 230.361 41.1832 230.869 41.4141C231.37 41.6379 231.87 41.9049 232.371 42.2152C234.552 43.5432 235.643 45.1129 235.643 46.9244ZM249.508 48.505L252.37 51.1572C251.565 51.9006 250.622 52.4852 249.543 52.911C248.464 53.3368 247.303 53.5497 246.059 53.5497C244.824 53.5497 243.667 53.3368 242.587 52.911C241.508 52.4852 240.566 51.9006 239.761 51.1572C238.947 50.4067 238.31 49.5334 237.849 48.5374C237.387 47.5415 237.156 46.4842 237.156 45.3655C237.156 44.2252 237.387 43.1571 237.849 42.1611C238.31 41.1651 238.947 40.2919 239.761 39.5413C240.566 38.7979 241.508 38.2133 242.587 37.7875C243.667 37.3617 244.824 37.1488 246.059 37.1488C247.303 37.1488 248.464 37.3617 249.543 37.7875C250.622 38.2133 251.565 38.7979 252.37 39.5413L249.508 42.1936C248.562 41.3203 247.412 40.8837 246.059 40.8837C244.761 40.8837 243.616 41.3203 242.623 42.1936C241.676 43.0596 241.203 44.1169 241.203 45.3655C241.203 46.5924 241.676 47.6389 242.623 48.505C243.092 48.9452 243.62 49.2736 244.206 49.4901C244.793 49.7066 245.41 49.8149 246.059 49.8149C247.436 49.8149 248.585 49.3782 249.508 48.505ZM257.602 38.7618C258.235 38.2855 258.951 37.8922 259.748 37.5818C260.546 37.2715 261.449 37.1163 262.458 37.1163V40.8512C261.113 40.8512 259.967 41.2878 259.021 42.1611C258.075 43.0705 257.602 44.1278 257.602 45.333V53.1492H253.555V45.333V37.5494H257.602V38.7618ZM268.37 53.1492H264.323V37.5818H268.37V53.1492ZM264.323 35.0919V31.3571H268.37V35.0919H264.323ZM279.97 37.1705C281.206 37.1705 282.348 37.3834 283.396 37.8092C284.443 38.235 285.351 38.8232 286.117 39.5738C286.875 40.3171 287.47 41.1904 287.9 42.1936C288.33 43.1895 288.545 44.2577 288.545 45.398C288.545 46.5166 288.33 47.5739 287.9 48.5699C287.47 49.5659 286.875 50.4391 286.117 51.1897C285.351 51.9331 284.443 52.5177 283.396 52.9435C282.348 53.3693 281.206 53.5822 279.97 53.5822C278.641 53.5822 277.437 53.344 276.358 52.8677L277.812 49.5334C278.352 49.7427 278.958 49.8473 279.63 49.8473C281.007 49.8473 282.156 49.4107 283.079 48.5374C284.025 47.6642 284.498 46.6177 284.498 45.398C284.498 44.1494 284.025 43.0885 283.079 42.2152C282.133 41.3492 280.983 40.9161 279.63 40.9161C278.332 40.9161 277.187 41.3492 276.193 42.2152C275.247 43.0885 274.774 44.1494 274.774 45.398V51.9367V53.1817H270.727V31.3571H274.774V38.8268C275.431 38.3505 276.186 37.9571 277.038 37.6468C277.89 37.3292 278.868 37.1705 279.97 37.1705ZM307.465 47.2275H303.219H294.375C294.601 47.7111 294.93 48.1369 295.36 48.505C295.829 48.9452 296.357 49.2736 296.944 49.4901C297.53 49.7066 298.148 49.8149 298.797 49.8149C299.72 49.8149 300.541 49.62 301.26 49.2303L305.483 50.7784C304.67 51.6516 303.688 52.3336 302.539 52.8244C301.397 53.308 300.15 53.5497 298.797 53.5497C297.561 53.5497 296.404 53.3368 295.325 52.911C294.246 52.4852 293.299 51.9006 292.486 51.1572C291.681 50.4067 291.047 49.5334 290.586 48.5374C290.125 47.5415 289.894 46.4842 289.894 45.3655C289.894 44.2252 290.125 43.1571 290.586 42.1611C291.047 41.1651 291.681 40.2919 292.486 39.5413C293.299 38.7979 294.246 38.2133 295.325 37.7875C296.404 37.3617 297.561 37.1488 298.797 37.1488C300.032 37.1488 301.19 37.3617 302.269 37.7875C303.348 38.2133 304.294 38.7979 305.108 39.5413C305.921 40.2919 306.558 41.1651 307.019 42.1611C307.473 43.1571 307.7 44.2252 307.7 45.3655C307.7 46.0295 307.622 46.6502 307.465 47.2275ZM298.797 40.8837C297.491 40.8837 296.345 41.3203 295.36 42.1936C294.93 42.5833 294.601 43.0163 294.375 43.4927H303.219C302.992 43.0163 302.668 42.5833 302.245 42.1936C301.299 41.3203 300.15 40.8837 298.797 40.8837Z" fill="#2951DC"/>
<path d="M42.5541 74.687L53.4922 90H31.6197L20.6852 74.687H42.5541Z" fill="#557AFF"/>
<path d="M21.8725 45.6692L54.4834 0H32.6109L0 45.6692H21.8725Z" fill="#2951DC"/>
<path d="M37.6913 67.8209H15.8188L0 45.6692H21.8725L37.6913 67.8209Z" fill="#557AFF"/>
<path d="M64.1309 44.4742L31.6198 90.0001H53.4924L85.9999 44.4742H64.1309ZM37.6914 67.821L70.1811 22.3191L48.3121 22.3225L15.8188 67.821H37.6914Z" fill="#2951DC"/>
<path d="M86 44.4742H64.131L48.3087 22.319H70.1812L86 44.4742ZM54.4836 0L65.4181 15.313H43.5456L32.6111 0H54.4836Z" fill="#557AFF"/>
</svg>
